<svg width="200" height="60" viewBox="0 0 200 60" fill="none" xmlns="http://www.w3.org/2000/svg">
<rect y="3" width="200" height="56" rx="28" fill="#458FF6"/>
<path d="M47.308 37.18C45.988 37.18 44.854 36.916 43.906 36.388C42.97 35.848 42.25 35.092 41.746 34.12C41.242 33.136 40.99 31.978 40.99 30.646C40.99 29.314 41.242 28.162 41.746 27.19C42.25 26.218 42.97 25.468 43.906 24.94C44.854 24.4 45.988 24.13 47.308 24.13C48.196 24.13 48.994 24.256 49.702 24.508C50.422 24.76 51.04 25.132 51.556 25.624L50.8 27.46C50.236 27.004 49.69 26.68 49.162 26.488C48.646 26.284 48.052 26.182 47.38 26.182C46.096 26.182 45.112 26.572 44.428 27.352C43.756 28.12 43.42 29.218 43.42 30.646C43.42 32.074 43.756 33.178 44.428 33.958C45.112 34.738 46.096 35.128 47.38 35.128C48.052 35.128 48.646 35.032 49.162 34.84C49.69 34.636 50.236 34.3 50.8 33.832L51.556 35.668C51.04 36.148 50.422 36.52 49.702 36.784C48.994 37.048 48.196 37.18 47.308 37.18ZM57.0175 37.18C56.0815 37.18 55.2715 36.988 54.5875 36.604C53.9035 36.22 53.3695 35.674 52.9855 34.966C52.6135 34.258 52.4275 33.418 52.4275 32.446C52.4275 31.474 52.6135 30.64 52.9855 29.944C53.3695 29.236 53.9035 28.69 54.5875 28.306C55.2715 27.922 56.0815 27.73 57.0175 27.73C57.9535 27.73 58.7635 27.922 59.4475 28.306C60.1435 28.69 60.6775 29.236 61.0495 29.944C61.4335 30.64 61.6255 31.474 61.6255 32.446C61.6255 33.418 61.4335 34.258 61.0495 34.966C60.6775 35.674 60.1435 36.22 59.4475 36.604C58.7635 36.988 57.9535 37.18 57.0175 37.18ZM57.0175 35.452C57.7255 35.452 58.2895 35.206 58.7095 34.714C59.1295 34.21 59.3395 33.454 59.3395 32.446C59.3395 31.438 59.1295 30.688 58.7095 30.196C58.2895 29.704 57.7255 29.458 57.0175 29.458C56.3095 29.458 55.7455 29.704 55.3255 30.196C54.9055 30.688 54.6955 31.438 54.6955 32.446C54.6955 33.454 54.9055 34.21 55.3255 34.714C55.7455 35.206 56.3095 35.452 57.0175 35.452ZM63.5658 37V30.178C63.5658 29.806 63.5538 29.428 63.5298 29.044C63.5058 28.66 63.4698 28.282 63.4218 27.91H65.5998L65.7798 29.71H65.5638C65.8518 29.074 66.2778 28.588 66.8418 28.252C67.4058 27.904 68.0598 27.73 68.8038 27.73C69.8718 27.73 70.6758 28.03 71.2158 28.63C71.7558 29.23 72.0258 30.166 72.0258 31.438V37H69.7758V31.546C69.7758 30.814 69.6318 30.292 69.3438 29.98C69.0678 29.656 68.6478 29.494 68.0838 29.494C67.3878 29.494 66.8358 29.71 66.4278 30.142C66.0198 30.574 65.8158 31.15 65.8158 31.87V37H63.5658ZM77.6515 37.18C76.8715 37.18 76.1515 37.09 75.4915 36.91C74.8435 36.718 74.2975 36.454 73.8535 36.118L74.4835 34.606C74.9395 34.918 75.4435 35.158 75.9955 35.326C76.5475 35.494 77.1055 35.578 77.6695 35.578C78.2695 35.578 78.7135 35.476 79.0015 35.272C79.3015 35.068 79.4515 34.792 79.4515 34.444C79.4515 34.168 79.3555 33.952 79.1635 33.796C78.9835 33.628 78.6895 33.502 78.2815 33.418L76.4815 33.076C75.7135 32.908 75.1255 32.62 74.7175 32.212C74.3215 31.804 74.1235 31.27 74.1235 30.61C74.1235 30.046 74.2735 29.548 74.5735 29.116C74.8855 28.684 75.3235 28.348 75.8875 28.108C76.4635 27.856 77.1355 27.73 77.9035 27.73C78.5755 27.73 79.2055 27.82 79.7935 28C80.3935 28.18 80.8975 28.45 81.3055 28.81L80.6575 30.268C80.2855 29.968 79.8595 29.734 79.3795 29.566C78.8995 29.398 78.4315 29.314 77.9755 29.314C77.3515 29.314 76.8955 29.428 76.6075 29.656C76.3195 29.872 76.1755 30.154 76.1755 30.502C76.1755 30.766 76.2595 30.988 76.4275 31.168C76.6075 31.336 76.8835 31.462 77.2555 31.546L79.0555 31.888C79.8595 32.044 80.4655 32.32 80.8735 32.716C81.2935 33.1 81.5035 33.628 81.5035 34.3C81.5035 34.9 81.3415 35.416 81.0175 35.848C80.6935 36.28 80.2435 36.61 79.6675 36.838C79.0915 37.066 78.4195 37.18 77.6515 37.18ZM86.7051 37.18C85.5891 37.18 84.7551 36.874 84.2031 36.262C83.6511 35.65 83.3751 34.714 83.3751 33.454V27.91H85.6251V33.436C85.6251 34.108 85.7631 34.606 86.0391 34.93C86.3151 35.242 86.7351 35.398 87.2991 35.398C87.9351 35.398 88.4511 35.182 88.8471 34.75C89.2551 34.318 89.4591 33.748 89.4591 33.04V27.91H91.7091V37H89.5131V35.146H89.7651C89.5011 35.794 89.0991 36.298 88.5591 36.658C88.0311 37.006 87.4131 37.18 86.7051 37.18ZM94.1517 37V23.752H96.4017V37H94.1517ZM102.733 37.18C101.653 37.18 100.837 36.898 100.285 36.334C99.7331 35.77 99.4571 34.924 99.4571 33.796V29.602H97.7111V27.91H99.4571V25.588L101.707 25.012V27.91H104.137V29.602H101.707V33.652C101.707 34.276 101.827 34.714 102.067 34.966C102.307 35.218 102.637 35.344 103.057 35.344C103.285 35.344 103.477 35.326 103.633 35.29C103.801 35.254 103.963 35.206 104.119 35.146V36.928C103.915 37.012 103.687 37.072 103.435 37.108C103.195 37.156 102.961 37.18 102.733 37.18ZM114.493 37.18C113.413 37.18 112.597 36.898 112.045 36.334C111.493 35.77 111.217 34.924 111.217 33.796V29.602H109.471V27.91H111.217V25.588L113.467 25.012V27.91H115.897V29.602H113.467V33.652C113.467 34.276 113.587 34.714 113.827 34.966C114.067 35.218 114.397 35.344 114.817 35.344C115.045 35.344 115.237 35.326 115.393 35.29C115.561 35.254 115.723 35.206 115.879 35.146V36.928C115.675 37.012 115.447 37.072 115.195 37.108C114.955 37.156 114.721 37.18 114.493 37.18ZM121.441 37.18C120.505 37.18 119.695 36.988 119.011 36.604C118.327 36.22 117.793 35.674 117.409 34.966C117.037 34.258 116.851 33.418 116.851 32.446C116.851 31.474 117.037 30.64 117.409 29.944C117.793 29.236 118.327 28.69 119.011 28.306C119.695 27.922 120.505 27.73 121.441 27.73C122.377 27.73 123.187 27.922 123.871 28.306C124.567 28.69 125.101 29.236 125.473 29.944C125.857 30.64 126.049 31.474 126.049 32.446C126.049 33.418 125.857 34.258 125.473 34.966C125.101 35.674 124.567 36.22 123.871 36.604C123.187 36.988 122.377 37.18 121.441 37.18ZM121.441 35.452C122.149 35.452 122.713 35.206 123.133 34.714C123.553 34.21 123.763 33.454 123.763 32.446C123.763 31.438 123.553 30.688 123.133 30.196C122.713 29.704 122.149 29.458 121.441 29.458C120.733 29.458 120.169 29.704 119.749 30.196C119.329 30.688 119.119 31.438 119.119 32.446C119.119 33.454 119.329 34.21 119.749 34.714C120.169 35.206 120.733 35.452 121.441 35.452ZM131.518 37.18C130.726 37.18 130.024 36.994 129.412 36.622C128.812 36.238 128.344 35.692 128.008 34.984C127.672 34.276 127.504 33.43 127.504 32.446C127.504 31.462 127.672 30.622 128.008 29.926C128.344 29.218 128.812 28.678 129.412 28.306C130.024 27.922 130.726 27.73 131.518 27.73C132.274 27.73 132.94 27.916 133.516 28.288C134.104 28.648 134.494 29.14 134.686 29.764H134.452V23.752H136.702V37H134.488V35.074H134.704C134.512 35.722 134.122 36.238 133.534 36.622C132.958 36.994 132.286 37.18 131.518 37.18ZM132.148 35.452C132.856 35.452 133.426 35.206 133.858 34.714C134.29 34.21 134.506 33.454 134.506 32.446C134.506 31.438 134.29 30.688 133.858 30.196C133.426 29.704 132.856 29.458 132.148 29.458C131.44 29.458 130.864 29.704 130.42 30.196C129.988 30.688 129.772 31.438 129.772 32.446C129.772 33.454 129.988 34.21 130.42 34.714C130.864 35.206 131.44 35.452 132.148 35.452ZM142.662 37.18C141.87 37.18 141.174 36.994 140.574 36.622C139.974 36.238 139.506 35.692 139.17 34.984C138.834 34.276 138.666 33.43 138.666 32.446C138.666 31.462 138.834 30.622 139.17 29.926C139.506 29.218 139.974 28.678 140.574 28.306C141.174 27.922 141.87 27.73 142.662 27.73C143.43 27.73 144.102 27.922 144.678 28.306C145.266 28.678 145.656 29.182 145.848 29.818H145.65L145.848 27.91H148.008C147.972 28.282 147.936 28.66 147.9 29.044C147.876 29.428 147.864 29.806 147.864 30.178V37H145.632L145.614 35.128H145.83C145.638 35.752 145.248 36.25 144.66 36.622C144.072 36.994 143.406 37.18 142.662 37.18ZM143.292 35.452C144 35.452 144.57 35.206 145.002 34.714C145.434 34.21 145.65 33.454 145.65 32.446C145.65 31.438 145.434 30.688 145.002 30.196C144.57 29.704 144 29.458 143.292 29.458C142.584 29.458 142.014 29.704 141.582 30.196C141.15 30.688 140.934 31.438 140.934 32.446C140.934 33.454 141.144 34.21 141.564 34.714C141.996 35.206 142.572 35.452 143.292 35.452ZM150.046 41.086L149.524 39.304C150.088 39.184 150.562 39.046 150.946 38.89C151.33 38.734 151.648 38.53 151.9 38.278C152.152 38.026 152.362 37.702 152.53 37.306L152.98 36.244L152.926 37.126L148.966 27.91H151.36L154.204 35.002H153.682L156.544 27.91H158.812L154.672 37.504C154.396 38.152 154.096 38.686 153.772 39.106C153.448 39.538 153.1 39.88 152.728 40.132C152.356 40.396 151.948 40.6 151.504 40.744C151.06 40.888 150.574 41.002 150.046 41.086Z" fill="white"/>
</svg>
